PathFileType	4	(X/Y/Z)	Patient4_TMGait_0pt4_02_left_31.trc.trc
DataRate	CameraRate	NumFrames	NumMarkers	Units	OrigDataRate	OrigDataStartFrame	OrigNumFrames
76.502732240437	76.502732240437	5	33	mm	76.502732240437	89	       141
Frame#	Time	Sacral			L.Shoulder			Chest			R.Shoulder			Neck			R.ASIS			L.ASIS			R.Thigh.Superior			R.Thigh.Lateral			R.Thigh.Inferior			R.Patella			L.Thigh.Superior			L.Thigh.Lateral			L.Thigh.Inferior			L.Patella			L.Shank.Superior			L.Shank.Lateral			L.Shank.Inferior			R.Shank.Superior			R.Shank.Lateral			R.Shank.Inferior			R.Heel			R.Midfoot.Superior			R.Midfoot.Lateral			R.Toe			L.Heel			L.Midfoot.Lateral			L.Midfoot.Superior			L.Toe			L.Elbow			L.Wrist			R.Elbow			R.Wrist			
		X1	Y1	Z1	X2	Y2	Z2	X3	Y3	Z3	X4	Y4	Z4	X5	Y5	Z5	X6	Y6	Z6	X7	Y7	Z7	X8	Y8	Z8	X9	Y9	Z9	X10	Y10	Z10	X11	Y11	Z11	X12	Y12	Z12	X13	Y13	Z13	X14	Y14	Z14	X15	Y15	Z15	X16	Y16	Z16	X17	Y17	Z17	X18	Y18	Z18	X19	Y19	Z19	X20	Y20	Z20	X21	Y21	Z21	X22	Y22	Z22	X23	Y23	Z23	X24	Y24	Z24	X25	Y25	Z25	X26	Y26	Z26	X27	Y27	Z27	X28	Y28	Z28	X29	Y29	Z29	X30	Y30	Z30	X31	Y31	Z31	X32	Y32	Z32	X33	Y33	Z33	

89	42.690285714286	870.041605253368	998.313407764285	484.346914532486	1042.852604050190	1432.265472187670	305.269084509230	1136.914280390000	1371.574786246662	474.461924978662	1036.754071605724	1439.830731628232	641.417809444678	1010.466157246190	1494.143559568995	460.302955027962	1097.462637649358	946.823761217565	612.208341069809	1092.409526402919	961.632875750929	337.606084251429	1151.167881936742	747.060310332125	582.213233443851	1076.160012780896	633.690628422858	642.696261646605	1157.013942001090	585.375272677906	563.098387574703	1162.472723629876	496.716055434970	569.769603603907	1134.561096626545	741.382892067686	356.976142881195	1048.715005627433	628.739070736392	283.831883728967	1136.480450516877	544.350315008553	337.853684223482	1130.493255565822	461.218726769179	332.088452645511	1066.644830840557	400.830177536121	324.170523210133	929.755291639185	347.494207747423	275.382170473033	926.728458143202	217.143273603106	328.106083467511	1134.717480401810	407.093522314603	577.751325296690	1065.461233061063	303.643063121052	641.137228507893	1106.784157776037	208.000915963926	578.917750213965	974.402138226400	43.481227974571	552.168586731973	1144.610783685512	96.975089244829	588.451835468387	1057.489853469526	37.553749726365	627.807593892819	1265.900525307960	43.947315884217	617.735674981703	745.319011000182	129.965781416870	368.417550148906	805.944687937987	92.369518199061	287.170626931384	907.975904324040	116.649941215698	306.121197812792	1000.754668392915	33.742697354085	276.947210958415	1079.918120997232	1085.371705474565	179.489309846711	1300.679635918871	943.052861715672	159.681049804299	991.775459597390	1090.306837447365	753.547591223825	1090.457495320848	847.930606839444	752.568046947319	
90	42.703357142857	869.686239949090	998.534998248945	488.426555042591	1040.330336851720	1432.258771908499	307.480294666278	1136.336548899251	1371.883497253614	475.702800133551	1038.066902707031	1440.328152778335	643.653088817528	1009.596061338653	1494.327376269618	462.672459108751	1098.049426764861	947.098137182837	614.372002779117	1091.245057611012	961.979911885453	339.763235955979	1150.148981833328	746.489057803692	584.952504799659	1073.928894268991	633.462457385368	644.911134320910	1154.546566823129	584.791024052760	565.374739180142	1159.244957765925	496.150120682311	571.584873524000	1138.154563870573	744.046966470275	359.019729355616	1056.482468774971	629.780970270114	284.834006832016	1146.535644837163	547.198749237907	338.809471098975	1141.799415476000	463.152820416759	332.449019618867	1076.580605273442	402.503582373175	324.526014976922	938.039454191671	353.355377632451	275.759641680299	931.496413346631	222.972789192888	328.069156091034	1131.150867311162	406.675327318316	579.240895110400	1061.469113548131	303.302759318286	642.238029333942	1102.282442766989	207.744080952012	579.579662506388	969.172686913679	43.484284061239	552.301814339975	1139.375206719054	96.754850000129	588.535660755887	1052.256523311326	37.496193399506	627.968287913861	1260.712437879491	43.684434927818	617.953416324881	747.010211029124	143.978899935315	368.050664400779	805.911994116667	103.031259619275	286.963860185183	909.224651343796	121.533980207370	306.124614805820	996.632522586003	32.845214459570	277.366280994099	1073.435544720516	1083.888866927062	183.909705148091	1286.713131512245	930.443431589868	162.881291116155	1001.266022498858	1090.417147920359	758.592505483541	1112.679906870636	853.687894008479	756.267205016653	
91	42.716428571429	869.086706516904	998.660122674222	492.349194961528	1037.784461109364	1432.100328863267	309.563477657088	1135.734347602520	1371.969471831563	476.773374277959	1039.449301038238	1440.647514031341	645.746323190497	1008.789073965098	1494.383776897503	464.929953550246	1098.395595033849	947.202835071145	616.362839354891	1089.784197746746	962.112460719799	341.773855483088	1148.953330626784	745.873162649599	587.390611757948	1071.775322278161	633.197889013866	647.009103623738	1152.023928842548	584.201926946203	567.402894768876	1155.988808134966	495.552109424615	573.269919764085	1141.453389472429	746.812645659258	360.997162259459	1064.020881412261	631.052727944971	285.731685921354	1156.187360626589	550.393168691903	339.833642632030	1152.847139617102	465.502522843150	333.014360628261	1086.443120069222	404.482983171541	325.037479471069	946.522262010988	359.206382610103	276.130400620363	936.628854563811	228.896712183880	328.228942873492	1127.565838446443	406.204486193809	580.631951242060	1057.450570812365	302.924161027361	643.278828621232	1097.732062699888	207.439908747403	580.193149643389	963.870681454363	43.476518152586	552.431010593452	1134.095510180748	96.551252004449	588.647372367252	1046.947026060131	37.432287111166	628.123695677267	1255.446472968870	43.411882472862	618.131260673535	749.435134032379	157.703602090666	367.725416887893	806.728292195213	113.798600186809	286.788969249341	911.057684148068	126.759682840868	306.345067918137	993.280471203015	32.050448090312	277.841747728802	1067.079948793173	1082.418031452583	188.037778995872	1271.787990075754	917.712864367365	166.190161659153	1010.835142313975	1090.696169792517	763.641725926272	1135.146214987185	860.585533789283	759.646847329849	
92	42.729500000000	868.257896180616	998.704766377372	496.093767811036	1035.262744424385	1431.821632872828	311.511835456963	1135.115506098880	1371.860778693027	477.686954156087	1040.871351768605	1440.815926478234	647.688545558005	1008.061201348185	1494.343022660042	467.057133650117	1098.506491148260	947.163133267619	618.183276077979	1088.000929114849	962.052198667713	343.653988635119	1147.608410630905	745.241147719711	589.468829575117	1069.741344507103	632.910350220240	648.963221072422	1149.481181512928	583.616539847841	569.143901025822	1152.743477669287	494.932346391624	574.777306122874	1144.366820835599	749.680620007362	362.905748107275	1071.124459416191	632.577453371466	286.550981001670	1165.255449489604	553.923701696398	340.868530012477	1163.451160640667	468.263173522418	333.694638612244	1096.059922737387	406.776085472070	325.643155019788	955.019482378795	364.911899613782	276.498335203784	942.107909989182	234.720394981083	328.537855636534	1123.999373856565	405.692373495903	581.889757707548	1053.448717168376	302.524578057139	644.239100129974	1093.166896506269	207.100775427745	580.745559668102	958.527997612753	43.457014503240	552.565067846356	1128.810252304964	96.408241547176	588.824436142910	1041.595945602470	37.369193825782	628.280421664006	1250.132693585522	43.158346195378	618.275390589218	752.635522438327	170.535955359647	367.451148332864	808.530963728583	124.163250781498	286.644813251641	913.620161110152	132.102392248164	306.715986507967	991.105646509458	31.460932158345	278.309463320626	1060.853109691539	1080.966675371650	191.898482088246	1255.884404456303	905.038699306914	169.610967339436	1020.479766201217	1091.148302010890	768.610785102917	1157.704263748775	868.673254354358	762.644165285932	
93	42.742571428571	867.222968035077	998.703758745322	499.646615429956	1032.808639661241	1431.464900917700	313.324401102095	1134.487758677552	1371.601487416100	478.462305401584	1042.303796881448	1440.876678592668	649.474835787900	1007.422344525872	1494.243974861061	469.038917335660	1098.395132086144	947.011731254066	619.835601822441	1085.886180008407	961.847861058098	345.416886055220	1146.132054617396	744.612670533344	591.170316590235	1067.814597933327	632.610831109580	650.746966172747	1146.925275220365	583.038391947103	570.585712431287	1149.513075316630	494.302830160652	576.069110003102	1146.820944792303	752.653768240308	364.736405783728	1077.612034821167	634.364240488733	287.313175747554	1173.592302453168	557.767565310130	341.843262373004	1173.445680215787	471.422548452915	334.386130385389	1105.290495782789	409.377582314787	326.262517115634	963.375307220298	370.312406621883	276.861926338297	947.969616003905	240.218078154562	328.925334815589	1120.457496434692	405.153787292649	582.986416944613	1049.474404764452	302.121279989685	645.097527376177	1088.602157582419	206.741856874988	581.226504669377	953.171004282313	43.423819498350	552.707868115499	1123.544294195130	96.351823571450	589.081609502595	1036.230618204166	37.311838399287	628.440423588769	1244.794624141293	42.948272788026	618.391021447785	756.699186045623	181.828324962393	367.233566025518	811.492745656550	133.568046173216	286.518698878998	917.114246110905	137.286320785366	307.143902489433	990.586686709430	31.173952503841	278.674427122786	1054.731161017349	1079.552777852397	195.530955329073	1238.999691360353	892.616662961385	173.143602887531	1030.193203225571	1091.790958791446	773.410774311037	1180.199212887014	877.997469028345	765.197509228553	
